External Loads File
version=1
nRows=46
nColumns=13
Range=5.000000e-03-10 seconds
endheader
time 	forceRightX 	forceRightY 	forceRightZ 	pointRightX 	pointRightY 	pointRightZ 	forceLeftX 	forceLeftY 	forceLeftZ 	pointLeftX 	pointLeftY 	pointLeftZ 		
0.005000 -24.259931 137.442318 -0.000000 0.360532 0.479524 -0.111692 -4.791596 229.490488 -0.000000 0.208356 0.160371 -0.355137
0.010000 -24.832953 137.452230 -0.000000 0.360497 0.479535 -0.111689 -5.240282 229.684856 -0.000000 0.208391 0.160374 -0.355133
0.015000 -25.398802 137.467676 -0.000000 0.360469 0.479546 -0.111689 -5.602612 229.956389 -0.000000 0.208409 0.160368 -0.355136
0.020000 -25.338543 137.601031 -0.000000 0.360685 0.479592 -0.111751 -4.844442 230.288199 -0.000000 0.207848 0.162328 -0.356195
0.025000 -26.392526 137.532118 -0.000000 0.360728 0.479678 -0.111886 -5.929741 230.548449 -0.000000 0.208388 0.160193 -0.355097
0.030000 -26.812336 137.604588 -0.000000 0.360740 0.479640 -0.111885 -5.996927 230.764020 -0.000000 0.208384 0.160315 -0.355090
0.035000 -27.147370 137.731141 -0.000000 0.360790 0.479620 -0.111870 -5.995102 230.936041 -0.000000 0.208317 0.160314 -0.355087
0.040000 -27.393750 137.903847 -0.000000 0.360844 0.479570 -0.111864 -5.903488 231.109720 -0.000000 0.208228 0.160346 -0.355092
0.045000 -27.581215 138.087851 -0.000000 0.360922 0.479526 -0.111763 -5.739493 231.315433 -0.000000 0.208130 0.160397 -0.355085
0.050000 -27.736202 138.246030 -0.000000 0.361012 0.479476 -0.111765 -5.508890 231.594153 -0.000000 0.208008 0.160447 -0.355091
0.055000 -27.864074 138.356931 -0.000000 0.361136 0.479409 -0.111777 -5.186454 231.998775 -0.000000 0.207852 0.160530 -0.355089
0.060000 -27.995365 138.415590 -0.000000 0.361283 0.479334 -0.111788 -4.820502 232.539561 -0.000000 0.207692 0.160650 -0.355082
0.065000 -28.148001 138.438646 -0.000000 0.361445 0.479240 -0.111809 -4.475993 233.155872 -0.000000 0.207518 0.160740 -0.355069
0.070000 -28.331341 138.445452 -0.000000 0.361631 0.479175 -0.111801 -4.198033 233.763366 -0.000000 0.207323 0.160853 -0.355055
0.075000 -28.576904 138.445440 -0.000000 0.361818 0.479085 -0.111808 -4.025218 234.315671 -0.000000 0.207112 0.160965 -0.355038
0.080000 -28.905718 138.457472 -0.000000 0.362034 0.478967 -0.111784 -3.954634 234.796079 -0.000000 0.206888 0.161078 -0.355030
0.085000 -29.342431 138.505287 -0.000000 0.362263 0.478835 -0.111774 -4.001671 235.184162 -0.000000 0.206641 0.161192 -0.355032
0.090000 -29.889392 138.608817 -0.000000 0.362488 0.478689 -0.111774 -4.164217 235.475763 -0.000000 0.206374 0.161320 -0.355027
0.095000 -30.529648 138.784201 -0.000000 0.362681 0.478546 -0.111772 -4.432734 235.701116 -0.000000 0.206101 0.161448 -0.355020
0.100000 -31.184282 139.053586 -0.000000 0.362891 0.478403 -0.111794 -4.726747 235.892799 -0.000000 0.205837 0.161575 -0.355002
0.105000 -31.773176 139.418846 -0.000000 0.363100 0.478318 -0.111797 -4.981963 236.054652 -0.000000 0.205514 0.161706 -0.354967
0.110000 -32.296132 139.839746 -0.000000 0.363296 0.478212 -0.111825 -5.250545 236.179693 -0.000000 0.205286 0.161821 -0.354966
0.115000 -32.697231 140.279068 -0.000000 0.363472 0.478099 -0.111840 -5.450714 236.293030 -0.000000 0.205049 0.161916 -0.354957
0.120000 -32.983002 140.688929 -0.000000 0.363611 0.477995 -0.111838 -5.586148 236.441171 -0.000000 0.204840 0.162036 -0.354962
0.125000 -33.121580 141.044385 -0.000000 0.363762 0.477897 -0.111831 -5.610926 236.642282 -0.000000 0.204628 0.162149 -0.354971
0.130000 -33.143574 141.329100 -0.000000 0.363880 0.477791 -0.111824 -5.596618 236.864182 -0.000000 0.204454 0.162239 -0.354976
0.135000 -33.045612 141.552735 -0.000000 0.363988 0.477719 -0.111824 -5.526341 237.079104 -0.000000 0.204287 0.162345 -0.354996
0.140000 -32.887752 141.716436 -0.000000 0.364073 0.477677 -0.111812 -5.440948 237.293431 -0.000000 0.204146 0.162406 -0.354997
0.145000 -32.692789 141.835541 -0.000000 0.364150 0.477649 -0.111812 -5.313612 237.519974 -0.000000 0.204027 0.162482 -0.355000
0.150000 -32.505333 141.924229 -0.000000 0.364207 0.477625 -0.111817 -5.187512 237.743444 -0.000000 0.203916 0.162509 -0.355015
0.155000 -32.356103 141.999123 -0.000000 0.364245 0.477605 -0.111822 -5.104414 237.937776 -0.000000 0.203846 0.162547 -0.355012
0.160000 -32.255612 142.085150 -0.000000 0.364273 0.477589 -0.111817 -5.068764 238.108526 -0.000000 0.203780 0.162582 -0.355005
0.165000 -32.232481 142.206900 -0.000000 0.364294 0.477587 -0.111829 -5.107402 238.298053 -0.000000 0.203743 0.162567 -0.354987
0.170000 -32.273415 142.387376 -0.000000 0.364308 0.477601 -0.111809 -5.189100 238.527340 -0.000000 0.203740 0.162579 -0.354992
0.175000 -32.385861 142.624891 -0.000000 0.364281 0.477632 -0.111816 -5.344649 238.755606 -0.000000 0.203745 0.162562 -0.355003
0.180000 -32.557977 142.908989 -0.000000 0.364225 0.477618 -0.111814 -5.576097 238.938024 -0.000000 0.203796 0.162526 -0.355002
0.185000 -32.765672 143.225905 -0.000000 0.364193 0.477656 -0.111593 -5.845718 239.086427 -0.000000 0.203864 0.162500 -0.355016
0.190000 -33.026869 143.551649 -0.000000 0.364094 0.477691 -0.111607 -6.182851 239.244794 -0.000000 0.203948 0.162446 -0.355004
0.195000 -33.315786 143.879603 -0.000000 0.363991 0.477732 -0.111610 -6.560610 239.422772 -0.000000 0.204053 0.162383 -0.355022
0.200000 -33.626800 144.204075 -0.000000 0.363888 0.477800 -0.111612 -6.996928 239.564953 -0.000000 0.204160 0.162301 -0.355027
0.205000 -33.971453 144.507193 -0.000000 0.363770 0.477901 -0.111620 -7.524515 239.606067 -0.000000 0.204295 0.162226 -0.355038
0.210000 -34.322194 144.767519 -0.000000 0.363665 0.477997 -0.111612 -8.089685 239.529591 -0.000000 0.204413 0.162119 -0.355027
0.215000 -34.669037 144.959382 -0.000000 0.363555 0.478054 -0.111595 -8.665058 239.352006 -0.000000 0.204533 0.162053 -0.355026
0.220000 -35.012963 145.069695 -0.000000 0.363451 0.478134 -0.111588 -9.231876 239.109554 -0.000000 0.204623 0.161999 -0.355021
0.225000 -35.360597 145.109675 -0.000000 0.363336 0.478177 -0.111593 -9.755469 238.877443 -0.000000 0.204703 0.161957 -0.355012
0.230000 -35.698854 145.117974 -0.000000 0.363257 0.478242 -0.111581 -10.178568 238.749655 -0.000000 0.204779 0.161932 -0.354999
